<?xml version="1.0" encoding="UTF-8" standalone="no"?>
<!-- Created with Inkscape (http://www.inkscape.org/) -->

<svg
   width="135.97369mm"
   height="118.97701mm"
   viewBox="0 0 135.97369 118.977"
   version="1.1"
   id="svg1"
   xmlns:inkscape="http://www.inkscape.org/namespaces/inkscape"
   xmlns:sodipodi="http://sodipodi.sourceforge.net/DTD/sodipodi-0.dtd"
   xmlns="http://www.w3.org/2000/svg"
   xmlns:svg="http://www.w3.org/2000/svg">
  <sodipodi:namedview
     id="namedview1"
     pagecolor="#ffffff"
     bordercolor="#000000"
     borderopacity="0.25"
     inkscape:showpageshadow="2"
     inkscape:pageopacity="0.0"
     inkscape:pagecheckerboard="0"
     inkscape:deskcolor="#d1d1d1"
     inkscape:document-units="mm">
    <inkscape:page
       x="0"
       y="-7.3807774e-29"
       width="135.97369"
       height="118.977"
       id="page2"
       margin="0"
       bleed="0" />
  </sodipodi:namedview>
  <defs
     id="defs1" />
  <g
     inkscape:label="Layer 1"
     inkscape:groupmode="layer"
     id="layer1"
     transform="translate(5.0270794,-98.160413)">
    <g
       id="g11"
       transform="matrix(0.26458333,0,0,0.26458333,-80.854661,-119.11938)">
      <path
         id="path229"
         d="m 3812.52,1357.97 c -7.51,92.81 -63.47,188.24 -113.39,264.57 -55.09,84.24 -121.56,160.85 -194.62,229.92 2.39,-9.07 4.79,-18.13 7.18,-27.2 8.36,28.8 56.46,32.53 79.93,37.87 33.91,7.72 67.82,15.43 101.74,23.15 67.47,15.35 134.82,32.49 202.68,46.02 38.96,7.77 77.24,12.65 114.2,-5.77 24.57,-12.25 45.84,-30.48 68.65,-45.53 44.53,-29.39 88.63,-33.62 139.71,-43.61 57.39,-11.24 70.98,-63.85 120.63,-86.31 7.88,-3.56 26.63,-5.82 32.14,-11.1 4.81,-15.8 9.62,-31.61 14.43,-47.41 -7.03,-4.42 -13.99,-8.94 -20.87,-13.58 -22.16,-14.75 -43.74,-30.35 -64.77,-46.69 -48.02,-37.33 -93.03,-78.51 -134.27,-123.23 -34.63,-37.56 -73.91,-78.61 -93.57,-126.32 -5.97,-14.48 14.62,-22.87 24.29,-14.13 56.72,51.2 98.63,118.94 155.64,171.38 31.3,28.79 64.48,55.54 99.17,80.14 25.11,17.82 59.65,32.05 80.32,55.51 33.57,38.1 2.52,82.48 -35.78,100.42 -21.45,10.06 -40.92,12.93 -58.99,29.25 -13,11.74 -20.38,26.85 -32.43,39.31 -18.25,18.88 -42.11,29.05 -67.11,35.53 -33.86,8.78 -69.55,8.94 -101.72,24.11 -31.82,15 -56.79,41.2 -86.57,59.42 -65.22,39.89 -132.6,27.03 -203.38,11.54 -86.51,-18.93 -173,-38.02 -259.5,-57.03 -51.64,-11.34 -111.22,-20.25 -128.47,-78.08 -2.79,-9.34 0.15,-20.44 7.19,-27.19 69.49,-66.66 136.01,-136.23 190.8,-215.73 53.77,-78 82.61,-165.79 129.66,-246.57 6.88,-11.83 28.27,-7.49 27.08,7.34 v 0"
         style="fill:#b4935d;fill-opacity:1;fill-rule:nonzero;stroke:none"
         transform="matrix(0.13333333,0,0,-0.13333333,0,1306.6667)" />
      <path
         id="path230"
         d="m 3552.84,1795.03 c -46.86,86.51 -160.49,33.86 -184.27,-43.23 -3.42,-11.07 -4.2,-22.19 -5.73,-33.61 -3.84,-28.65 -16.36,-45.51 -39.62,-62.21 -21.65,-15.55 -44.65,-28.33 -64.82,-46.11 -39.08,-34.46 -71.78,-79.32 -85.97,-129.95 -18.09,-64.5 13.31,-123.65 4.12,-187.79 -6.64,-46.37 6.98,-102.83 39.18,-138.79 36.49,-40.74 86.07,-9.2 126.91,6.79 68.48,26.81 140.83,38.39 209.73,62.79 15.14,5.36 13.12,28.12 -3.86,28.55 -42.55,1.06 -84.78,-8.71 -125.7,-19.59 -25.43,-6.77 -50.58,-14.54 -75.41,-23.24 -20.05,-7.02 -43.68,-21.84 -64.51,-24.71 -67.42,-9.3 -58.64,85.11 -55.51,127.2 3.61,48.67 -22.23,93.87 -13.47,142.72 7.87,43.86 34.34,83.03 65.67,113.74 28.52,27.95 65.99,43.18 94.75,70.04 28,26.16 27.35,56.38 34.68,91.52 13.86,66.43 76.85,93.33 134.85,56.9 5.76,-3.62 11.99,3.42 8.98,8.98 v 0"
         style="fill:#b4935d;fill-opacity:1;fill-rule:nonzero;stroke:none"
         transform="matrix(0.13333333,0,0,-0.13333333,0,1306.6667)" />
      <path
         id="path231"
         d="m 3551.34,1249.15 c -112.03,-5.71 -285.22,-66.62 -324,-185.75 -17.32,-53.21 9.69,-92.029 52.77,-120.541 16.98,-11.23 31.14,-18.386 41.59,-36.429 8.2,-14.168 9.13,-30.758 18.45,-44.418 14.67,-21.512 36.53,-25.293 59.47,-33.203 64.09,-22.079 89.62,-85.989 143.48,-122.746 52.82,-36.043 118.45,-39.114 179.94,-30.903 52.57,7.012 123.31,11.61 140.2,71.031 20.39,71.719 26.23,161.399 26.88,235.739 0.12,14.59 -20.57,16.761 -24.86,3.359 -18.79,-58.527 -28.69,-118.719 -39.35,-179.109 -5.87,-33.211 -4.56,-56.211 -39.33,-68.09 -26.14,-8.93 -58.73,-11.621 -85.98,-14.238 -56.35,-5.411 -110.33,2.058 -152.55,42.679 -30.03,28.891 -53,65.219 -88.57,88.129 -15.16,9.75 -31.31,12.84 -47.14,20.289 -31.49,14.801 -34.82,36.313 -52.19,62.391 -23.43,35.172 -92.06,46.68 -93.27,94.44 -1.49,58.53 80.07,107.51 122.59,132.53 51,30.01 107.85,51.48 163.87,70.11 7.65,2.55 6.86,15.19 -2,14.73 v 0"
         style="fill:#b4935d;fill-opacity:1;fill-rule:nonzero;stroke:none"
         transform="matrix(0.13333333,0,0,-0.13333333,0,1306.6667)" />
      <path
         id="path232"
         d="m 4161.55,1464.43 c 75.19,59.04 150.48,101.71 249.08,101.77 19.6,0.02 50.91,1.95 68.13,-7.71 32.87,-18.44 39.48,-57.51 48.2,-90.18 13.61,-50.97 26.32,-102.4 34.47,-154.56 8.1,-51.8 12.73,-105.14 9.18,-157.58 -1.9,-28.04 -5.98,-55.62 -13.05,-82.82 -8.3,-31.94 -14.51,-40.15 -47.29,-32.74 -97.75,22.11 -195.6,61.53 -296.03,67.68 -12.76,0.79 -18.21,-18.76 -6.62,-24.45 64.58,-31.76 137.21,-45.89 206.38,-64.82 41.35,-11.31 116.99,-49.489 158.11,-20.54 38.75,27.28 41.87,106.07 45.42,148.69 5.77,69.18 -3.28,138.33 -17.77,205.92 -13.79,64.33 -27.64,140.62 -56.8,199.96 -21.51,43.77 -73.63,48.15 -117.27,48.92 -100.36,1.79 -216.98,-44.28 -273.71,-130.16 -4.13,-6.25 4.56,-11.32 9.57,-7.38 v 0"
         style="fill:#b4935d;fill-opacity:1;fill-rule:nonzero;stroke:none"
         transform="matrix(0.13333333,0,0,-0.13333333,0,1306.6667)" />
      <path
         id="path233"
         d="m 4036.78,1198.18 c 93.42,-64.96 195.4,-127.22 276.68,-207.371 17.87,-17.629 34.83,-36.079 49.77,-56.27 20.1,-27.148 36.6,-45.969 3.05,-66.078 -40.04,-23.988 -53.3,-56.891 -82.27,-89.82 -21.99,-24.989 -47.47,-9.641 -75.62,-5.539 -21.26,3.089 -42.96,1.289 -63.59,-4.711 -50.93,-14.821 -112.72,-73.801 -168.37,-55.301 -54.23,18.039 -66.33,126.562 -76.2,173.512 -13.95,66.367 -19.71,134.018 -27.91,201.258 -1.83,15 -21.67,15.1 -23.44,0 -9.76,-83.7 -0.52,-167.891 15.7,-250.27 10.28,-52.199 19.36,-124 66.08,-158.11 46.96,-34.289 107.6,-17.488 155.55,5.11 48.76,22.969 82.41,42.64 138.22,32.82 23.72,-4.168 46.13,-8.551 68.79,2.5 21.94,10.711 29.67,29.539 41.46,49.5 21.09,35.711 47.12,48.43 78.63,72.84 47.13,36.5 12.3,84.711 -16.7,121.621 -89.23,113.569 -230.75,175.789 -352.74,246.449 -7.94,4.6 -14.43,-7.04 -7.09,-12.14 v 0"
         style="fill:#b4935d;fill-opacity:1;fill-rule:nonzero;stroke:none"
         transform="matrix(0.13333333,0,0,-0.13333333,0,1306.6667)" />
      <path
         id="path234"
         d="m 3453.62,1506.68 c 72.67,-28.46 142.36,-65.08 207.88,-107.4 32.61,-21.06 64.53,-42.64 94.61,-67.26 23.97,-19.64 45.23,-46.13 77.02,-50.68 13.2,-1.89 24.35,7.34 21.33,21.34 -7.4,34.38 -37.98,52.65 -64.91,72.69 -32.74,24.36 -67.13,47.29 -103.38,66.12 -72.61,37.71 -149.5,61.04 -230.06,74.23 -5.97,0.98 -8.13,-6.83 -2.49,-9.04 v 0"
         style="fill:#b4935d;fill-opacity:1;fill-rule:nonzero;stroke:none"
         transform="matrix(0.13333333,0,0,-0.13333333,0,1306.6667)" />
      <path
         id="path235"
         d="m 3784.98,1810.37 c 41.93,-80.11 70.81,-180.19 49.39,-270.54 -12.02,-50.66 -31.72,-99.73 -45.45,-149.99 -10.16,-37.2 -28.6,-94.62 -11.97,-132.4 21.43,-48.67 93.86,-22.99 87.43,27.07 -2.08,16.11 -18.96,24.74 -32.01,13.26 -2.29,-2.01 1.67,-17.45 8.32,-7.28 1.64,2.51 1.05,18.41 1.35,21.39 2.27,21.96 6.99,43.97 10.74,65.72 7.38,42.78 16.88,85.12 25.14,127.73 21.51,110.9 -13.89,224.75 -87.78,309.02 -2.55,2.9 -6.82,-0.8 -5.16,-3.98 v 0"
         style="fill:#b4935d;fill-opacity:1;fill-rule:nonzero;stroke:none"
         transform="matrix(0.13333333,0,0,-0.13333333,0,1306.6667)" />
      <path
         id="path236"
         d="m 4125.86,1772.79 c -88.81,-55.34 -151.46,-139.18 -199.99,-230.74 -47.47,-89.55 -96.29,-196.78 -108.99,-297.84 -3.04,-24.19 31.7,-35.44 46.87,-19.42 3.49,3.69 6.99,7.38 10.48,11.06 12.72,13.43 2.86,32.88 -14.26,34.41 -5.21,0.47 -10.42,0.94 -15.63,1.41 7.9,-13.77 15.8,-27.55 23.71,-41.32 41.35,87.21 56.41,187.16 93.7,276.84 40.11,96.46 97.45,181.89 172.63,254.56 5.69,5.5 -1.68,15.31 -8.52,11.04 v 0"
         style="fill:#b4935d;fill-opacity:1;fill-rule:nonzero;stroke:none"
         transform="matrix(0.13333333,0,0,-0.13333333,0,1306.6667)" />
      <path
         id="path237"
         d="m 4358.99,1340.78 c -164.48,-24.48 -332.02,-24.7 -496.04,1.1 -53.03,8.34 -72.51,-60.69 -22.16,-80.36 29.58,-11.55 58.72,1.6 68.4,31.64 3.63,11.26 -4.26,24.13 -15.39,27.1 -6.65,3.98 -8.63,4.8 -5.95,2.47 -11.99,-20.9 -23.99,-41.8 -35.98,-62.69 173.9,-9.49 345.8,13.02 510.86,67.18 8.8,2.88 5.05,14.86 -3.74,13.56 v 0"
         style="fill:#b4935d;fill-opacity:1;fill-rule:nonzero;stroke:none"
         transform="matrix(0.13333333,0,0,-0.13333333,0,1306.6667)" />
      <path
         id="path238"
         d="m 3980.75,1253.92 c -52.58,6.31 -102.79,20.79 -154.5,30.68 -29.92,5.73 -42.55,-37.15 -12.71,-46.1 54.57,-16.37 114.6,-11.02 168.83,3.45 7.11,1.9 4.81,11.19 -1.62,11.97 v 0"
         style="fill:#b4935d;fill-opacity:1;fill-rule:nonzero;stroke:none"
         transform="matrix(0.13333333,0,0,-0.13333333,0,1306.6667)" />
      <path
         id="path239"
         d="m 3462.57,939.629 c 66.71,59.652 119.62,127.621 194.88,178.521 35.29,23.87 72.35,44.83 110.79,63.17 31.55,15.05 68.8,19.02 77.61,56.77 2.29,9.82 -1.47,20.84 -10.55,25.94 -36.54,20.52 -68.02,-7.23 -99.64,-26.98 -40.23,-25.12 -78.44,-54.11 -114.06,-85.42 -63.94,-56.22 -135.64,-126.63 -166.87,-207.439 -1.82,-4.711 4.67,-7.39 7.84,-4.562 v 0"
         style="fill:#b4935d;fill-opacity:1;fill-rule:nonzero;stroke:none"
         transform="matrix(0.13333333,0,0,-0.13333333,0,1306.6667)" />
      <path
         id="path240"
         d="m 3609.89,917.051 c 49.71,39.012 87.43,93.379 126.07,142.849 39.29,50.31 78.59,100.49 118.99,149.91 24.06,29.45 8.38,70.47 -30.41,73.41 -12.95,0.98 -41.79,5.9 -21.13,23.76 15.88,13.72 5.76,38.02 -11.59,43.87 -45.68,15.4 -85.18,-26.86 -80.21,-71.77 6.17,-55.73 62.06,-82.79 112.93,-81.86 -12.38,21.57 -24.75,43.13 -37.13,64.7 -33.95,-58.29 -69.15,-115.75 -104.37,-173.3 -31.89,-52.11 -67.97,-105.128 -86.47,-163.807 -2.63,-8.372 7.62,-12.231 13.32,-7.762 v 0"
         style="fill:#b4935d;fill-opacity:1;fill-rule:nonzero;stroke:none"
         transform="matrix(0.13333333,0,0,-0.13333333,0,1306.6667)" />
      <path
         id="path241"
         d="m 4021.43,931.852 c -7.84,72.098 -25.51,141.398 -53.68,208.168 -20.74,49.17 -70.18,176.35 -143.07,152.96 -82.11,-26.36 17.16,-114.18 45.89,-139.3 68.82,-60.18 114.8,-135.62 140.73,-223.2 1.57,-5.328 10.78,-4.621 10.13,1.372 v 0"
         style="fill:#b4935d;fill-opacity:1;fill-rule:nonzero;stroke:none"
         transform="matrix(0.13333333,0,0,-0.13333333,0,1306.6667)" />
      <path
         id="path242"
         d="m 3976.84,1167.4 c 7.84,34.49 -25.49,67.98 -52.41,84.48 -17.7,10.85 -38.35,18.54 -59.11,19.97 -8.27,0.57 -20.64,2.29 -28.19,-1.08 -13.07,2.23 -13.44,-1.95 -1.12,-12.55 0.38,3.63 0.66,7.27 0.84,10.91 1.78,28.74 -31.37,42.59 -53.99,30.98 -55.37,-28.43 -13.03,-101.05 35.51,-105.5 24.84,-2.28 49.31,8.54 74.19,4.62 28.53,-4.49 44.13,-27.34 68.44,-38.27 5.99,-2.69 14.16,-0.95 15.84,6.44 v 0"
         style="fill:#b4935d;fill-opacity:1;fill-rule:nonzero;stroke:none"
         transform="matrix(0.13333333,0,0,-0.13333333,0,1306.6667)" />
      <path
         id="path243"
         d="m 3530,1346.34 c 53.91,-16.09 106.43,-28.21 157.47,-52.8 46.25,-22.28 89.16,-52.22 130.33,-82.75 49.04,-36.36 101.58,56.56 35.31,83.75 -96.62,39.64 -216.44,68.2 -321.61,62.85 -6.26,-0.32 -7.73,-9.19 -1.5,-11.05 v 0"
         style="fill:#b4935d;fill-opacity:1;fill-rule:nonzero;stroke:none"
         transform="matrix(0.13333333,0,0,-0.13333333,0,1306.6667)" />
      <path
         id="path244"
         d="m 4175.32,1594.75 c -18.6,12.85 -36.87,14.71 -57.96,6.23 -20.68,-8.32 -31.14,-33.4 -13.5,-51.12 27.32,-27.43 93.17,-22.84 93.48,26.54 0.29,47.89 -57.67,50.1 -88.26,32.05 -26.86,-15.85 -45.49,-44.29 -64.8,-68.16 -23.57,-29.15 -47.2,-58.26 -69.83,-88.16 -44.8,-59.21 -103.55,-124.02 -129.41,-194.14 -3.03,-8.21 8.45,-13.8 14.1,-8.21 49.83,49.23 84.89,114.48 132.49,166.71 23.94,26.26 48.81,52.16 74.9,76.31 14.16,13.1 105.26,78.91 80.58,100.32 1.6,-12.36 3.19,-24.71 4.79,-37.07 6.87,5.76 13.75,11.52 20.62,17.28 10.44,2.56 10.67,15.98 2.8,21.42 v 0"
         style="fill:#b4935d;fill-opacity:1;fill-rule:nonzero;stroke:none"
         transform="matrix(0.13333333,0,0,-0.13333333,0,1306.6667)" />
      <path
         id="path245"
         d="m 3455.99,2082.96 c -2.11,5.55 -4.22,11.1 -6.33,16.65 9.12,1.18 18.25,2.35 27.37,3.53 -1.62,-3.31 -3.25,-6.62 -4.87,-9.94 -8.24,2.18 -16.49,4.36 -24.73,6.54 53.42,-58.47 100.16,-124.36 137.26,-194.41 40.89,-77.19 63.44,-159.95 88.59,-243.07 48.19,-159.29 111.66,-325.97 204.98,-464.73 5.15,-7.65 15.72,-1.09 12.14,7.1 -38.9,89.08 -82.21,175.48 -115.76,266.93 -30.34,82.72 -54.32,167.13 -76.29,252.39 -40.26,156.26 -102.07,294.28 -214.98,411.73 -5.82,6.06 -16.57,9.59 -24.72,6.54 -38.4,-14.38 -41.64,-68.88 0.97,-80.37 7.03,-1.9 17.21,-0.36 21.99,5.81 17.85,23.07 10.11,70.4 -28.6,63.38 -29.69,-5.39 -33.66,-44.92 -6.51,-55.31 5.04,-1.93 8.98,2.9 9.49,7.23 v 0"
         style="fill:#b4935d;fill-opacity:1;fill-rule:nonzero;stroke:none"
         transform="matrix(0.13333333,0,0,-0.13333333,0,1306.6667)" />
      <path
         id="path246"
         d="m 4688.34,2053.98 c 106.34,-146.31 309.39,-124.58 448.02,-221.48 86.02,-60.13 132.95,-163.91 170.88,-258.27 36.64,-91.16 68.43,-207.35 143.41,-274.9 6.13,-5.52 18.05,-0.27 14.89,8.66 -18.36,51.98 -43.94,100.96 -62.21,153.06 -18.41,52.5 -33.43,106.1 -53.01,158.21 -32.89,87.57 -76.44,174.04 -148.67,235.93 -141.09,120.88 -355.33,87.13 -488.28,218.1 -12.42,12.24 -35.99,-4.22 -25.03,-19.31 v 0"
         style="fill:#b4935d;fill-opacity:1;fill-rule:nonzero;stroke:none"
         transform="matrix(0.13333333,0,0,-0.13333333,0,1306.6667)" />
      <path
         id="path247"
         d="m 5417.33,1337.44 c -37.69,120.7 -196.69,40.21 -274.4,26.05 -67.54,-12.31 -139.33,1.53 -198.56,35.83 -66.83,38.7 -97.9,103.19 -150.52,156.11 -86.83,87.35 -223.72,105.17 -296.3,208.6 -64.19,91.47 -88.53,206.8 -188.63,269.39 -2.38,-18.24 -4.77,-36.49 -7.15,-54.73 65.69,24.32 133.45,40.7 203.36,46.52 66.24,5.51 131.56,-2.83 197.69,-3.53 20.7,-0.21 22.03,27.36 4.61,34.07 -130.3,50.19 -293.23,24.87 -421.58,-19.31 -24.76,-8.52 -29.22,-40.22 -7.16,-54.74 94.04,-61.86 115.3,-186.11 182.79,-270.63 76.6,-95.94 205.63,-113.5 289.29,-198.73 44.87,-45.71 73.64,-102.28 126.24,-140.94 45.58,-33.49 99.87,-54.97 155.7,-63.36 54.14,-8.14 109.54,-3.72 161.38,14.12 69.9,24.04 142.79,66.99 207.57,6.16 6.56,-6.16 18.56,-0.15 15.67,9.12 v 0"
         style="fill:#b4935d;fill-opacity:1;fill-rule:nonzero;stroke:none"
         transform="matrix(0.13333333,0,0,-0.13333333,0,1306.6667)" />
      <path
         id="path248"
         d="m 4861.52,1686.37 c 35.74,70.53 40.38,152.53 12.33,226.71 -22.71,60.04 -75.71,152.03 -148.29,156.06 -13.24,0.73 -21.48,-15.25 -14.97,-26.1 14.44,-24.09 39.24,-40.07 58.62,-60.29 23.34,-24.36 42.54,-51.88 56.4,-82.71 29.45,-65.56 37.97,-137.96 23.06,-208.25 -1.57,-7.4 9.06,-12.9 12.85,-5.42 v 0"
         style="fill:#b4935d;fill-opacity:1;fill-rule:nonzero;stroke:none"
         transform="matrix(0.13333333,0,0,-0.13333333,0,1306.6667)" />
      <path
         id="path249"
         d="m 5018.71,1684.75 c 16.36,90.28 -25.99,228.29 -110,276.05 -13.91,7.91 -26.51,-7.44 -20.52,-20.52 19.57,-42.71 52.45,-77.92 71.81,-121.33 19.2,-43.05 29.81,-89.21 43.34,-134.2 2.12,-7.02 13.9,-8.14 15.37,0 v 0"
         style="fill:#b4935d;fill-opacity:1;fill-rule:nonzero;stroke:none"
         transform="matrix(0.13333333,0,0,-0.13333333,0,1306.6667)" />
      <path
         id="path250"
         d="m 4408.88,2033.28 c -22.17,24.64 -52.13,54.26 -52.55,89.3 -0.37,30.83 17.18,58.42 20.75,88.65 6.95,58.94 -22.75,112.72 -39.38,167.35 -10.1,33.19 -17.36,69.19 3.12,100.3 21.98,33.39 63.03,48.88 96.54,67.6 52.39,29.28 96.32,67.19 102.16,130.02 -12.8,-7.35 -25.59,-14.69 -38.39,-22.03 103.33,-50.85 184.51,-137.55 225.19,-245.86 21.39,-56.96 29.49,-116.63 27.56,-177.33 -2.24,-70.79 -22.25,-139.46 -24.76,-210.09 -0.6,-16.69 26.06,-25.6 33.19,-8.99 108.69,253.01 13.1,561.14 -235.42,686.33 -18.38,9.25 -36.39,-2.42 -38.39,-22.03 -8.39,-81.87 -133.76,-98.97 -180.96,-153.86 -44.44,-51.69 -33.6,-117.06 -12.11,-176 11.86,-32.55 27.25,-64.66 33.78,-98.89 7.25,-38.01 -9.13,-69.62 -12.62,-106.75 -5.73,-60.78 29.3,-97.92 82.07,-120.97 8.54,-3.73 16.99,5.74 10.22,13.25 v 0"
         style="fill:#b4935d;fill-opacity:1;fill-rule:nonzero;stroke:none"
         transform="matrix(0.13333333,0,0,-0.13333333,0,1306.6667)" />
      <path
         id="path251"
         d="m 4449.87,2408.24 c 73.41,-34.6 138.64,-71.73 184.44,-141.75 21.8,-33.34 36.06,-69.66 44.26,-108.53 6.09,-28.89 2.77,-56.77 28,-75.28 4.26,-3.12 12.29,-3.1 16.56,0 62.89,45.73 -14.98,178.79 -48.88,223.3 -50.33,66.08 -132.56,124.47 -218.94,122.35 -9.97,-0.25 -15.62,-15.3 -5.44,-20.09 v 0"
         style="fill:#b4935d;fill-opacity:1;fill-rule:nonzero;stroke:none"
         transform="matrix(0.13333333,0,0,-0.13333333,0,1306.6667)" />
      <path
         id="path252"
         d="m 4491.3,2251.64 c 40.71,-9.22 79.63,-26.06 114.06,-49.85 32.42,-22.41 52.96,-55.57 83.69,-78.67 8.45,-6.35 19.84,4.12 17.22,13.24 -11.34,39.45 -52.45,70.15 -85.7,91.46 -38.74,24.84 -81.33,36.95 -126.91,41.31 -10,0.96 -12.08,-15.29 -2.36,-17.49 v 0"
         style="fill:#b4935d;fill-opacity:1;fill-rule:nonzero;stroke:none"
         transform="matrix(0.13333333,0,0,-0.13333333,0,1306.6667)" />
      <path
         id="path253"
         d="m 4593.05,2642.63 c 86.34,-8.86 166.17,-62.09 248,-89.28 84.34,-28.03 190.26,-58.59 227.99,-148.74 39.06,-93.32 -36.94,-182.64 -102.05,-241.15 -64.57,-58.02 -135.62,-98.66 -212.6,-137.66 -14.44,-7.32 -8.18,-33.09 8.52,-31.45 101.09,9.91 190.01,76.9 259.22,147.98 66.58,68.39 127.4,164.89 95.98,263.82 -29.13,91.74 -122.19,141.48 -208.02,168.11 -57.87,17.96 -116.02,32.15 -172.19,55.32 -49.64,20.49 -92.91,38.4 -147.22,30.54 -10.69,-1.54 -6.77,-16.56 2.37,-17.49 v 0"
         style="fill:#b4935d;fill-opacity:1;fill-rule:nonzero;stroke:none"
         transform="matrix(0.13333333,0,0,-0.13333333,0,1306.6667)" />
      <path
         id="path254"
         d="m 4895.99,2346.4 c 25.24,-117.32 -56.32,-205.79 -132.1,-283.62 -25.33,-26.02 15.34,-66.46 39.77,-39.78 80.81,88.26 173.3,207.35 112.04,331.71 -5.63,11.43 -22.16,3.12 -19.71,-8.31 v 0"
         style="fill:#b4935d;fill-opacity:1;fill-rule:nonzero;stroke:none"
         transform="matrix(0.13333333,0,0,-0.13333333,0,1306.6667)" />
      <path
         id="path255"
         d="m 5088.37,2375.12 c 113.43,-131.04 183.64,-293.73 191.21,-467.66 9.5,7.24 19,14.48 28.5,21.71 -78.16,18.02 -156.89,32.31 -236.48,42.37 -40.28,5.09 -80.69,9.18 -121.18,12.17 -34.88,2.58 -67.9,8.32 -100.17,-6.62 -9.08,-4.2 -8.04,-18.17 0,-22.67 26.14,-14.64 51.65,-13.34 81.48,-15.34 40.51,-2.73 80.95,-6.4 121.27,-11.2 81.73,-9.72 162.79,-24.22 243.11,-42.13 13.54,-3.02 29.28,6.41 28.5,21.71 -9.34,184.15 -82.85,358.9 -217.02,486.89 -12.79,12.2 -30.59,-6.1 -19.22,-19.23 v 0"
         style="fill:#b4935d;fill-opacity:1;fill-rule:nonzero;stroke:none"
         transform="matrix(0.13333333,0,0,-0.13333333,0,1306.6667)" />
      <path
         id="path256"
         d="m 5270.61,1927.3 c 41.01,-71.45 78.73,-130.99 91.18,-215.02 6.51,-43.98 6.63,-88.48 5.32,-132.84 -1.35,-46.06 -10.95,-93.73 -6.02,-139.5 2.34,-21.79 32.51,-28.34 39.59,-5.36 27.98,90.84 21.79,209.47 1.97,301.71 -15.65,72.83 -51.59,164.32 -120.5,202.56 -7.34,4.07 -15.8,-4.13 -11.54,-11.55 v 0"
         style="fill:#b4935d;fill-opacity:1;fill-rule:nonzero;stroke:none"
         transform="matrix(0.13333333,0,0,-0.13333333,0,1306.6667)" />
      <path
         id="path257"
         d="m 5166,2143.86 c -60.03,-7.84 -119.09,-35.2 -178.05,-49.76 -34.6,-8.55 -69.74,-14.97 -105.2,-18.64 -29.44,-3.05 -54.57,0.69 -79.43,-16.22 -11.28,-7.67 -12.94,-25.07 0,-32.38 49.48,-27.99 137.94,2 189.65,16.01 60.92,16.52 134.34,40.82 178.33,88.19 3.93,4.22 1.61,13.7 -5.3,12.8 v 0"
         style="fill:#b4935d;fill-opacity:1;fill-rule:nonzero;stroke:none"
         transform="matrix(0.13333333,0,0,-0.13333333,0,1306.6667)" />
      <path
         id="path258"
         d="m 5760.69,2054.13 c 39.69,44.63 -5.56,93.35 -52.52,106.71 -88.18,25.09 -200.05,9.74 -289.45,-1.7 -188.14,-24.08 -387.84,-81.47 -556.98,-168 -9.34,-4.78 -2.64,-18.36 6.86,-16.28 150.49,32.95 293.59,91.84 445.93,119.32 76.54,13.8 155.62,23.26 233.48,18.68 27.23,-1.6 185.64,-5.37 188.67,-48.79 0.79,-11.26 15.34,-19.7 24.01,-9.94 v 0"
         style="fill:#b4935d;fill-opacity:1;fill-rule:nonzero;stroke:none"
         transform="matrix(0.13333333,0,0,-0.13333333,0,1306.6667)" />
      <path
         id="path259"
         d="m 5490.16,2544.69 c 2.27,-3.24 12.52,-14.72 12.35,-7.8 4.33,7.56 8.66,15.11 13,22.67 -55.9,-35.9 -87.78,-103.04 -133.66,-150.58 -51.05,-52.9 -104.64,-103.76 -158.8,-153.46 -53.64,-49.22 -108.88,-96.65 -166.4,-141.3 -29.65,-23.02 -59.85,-45.28 -90.72,-66.64 -26.72,-18.5 -59.21,-33.66 -79.38,-59.36 -4.28,-5.46 -0.45,-13.27 6.84,-11.76 39.59,8.2 74.96,40.28 107.54,63.33 34.42,24.36 68.05,49.83 101.04,76.08 68.97,54.88 135.05,113.4 199.27,173.74 67.73,63.63 132.42,126.63 205.17,184.35 19.5,15.47 52.92,40.99 47.66,69.91 -4.06,22.29 -25.46,30.56 -45.01,31.87 -14.1,0.94 -23.66,-14.27 -20.44,-26.83 0.3,-1.48 0.82,-2.89 1.54,-4.22 v 0"
         style="fill:#b4935d;fill-opacity:1;fill-rule:nonzero;stroke:none"
         transform="matrix(0.13333333,0,0,-0.13333333,0,1306.6667)" />
      <path
         id="path260"
         d="m 4838.32,1495.8 c -95.69,24.67 -187.13,7.1 -279.1,-24.46 -37.37,-12.83 -16.02,-66.33 21.31,-50.55 81.14,34.3 166.8,57.82 255.42,57.51 9.97,-0.03 12.2,14.96 2.37,17.5 v 0"
         style="fill:#b4935d;fill-opacity:1;fill-rule:nonzero;stroke:none"
         transform="matrix(0.13333333,0,0,-0.13333333,0,1306.6667)" />
      <path
         id="path261"
         d="m 4366.28,1933.43 c -10.56,-15.04 -12.78,-34.34 -24.32,-49.59 -11.71,-15.47 -27.15,-27.77 -42.63,-39.22 -25.89,-19.16 4.32,-56.89 26.69,-34.61 17.09,17.02 34.58,35.07 44.88,57.18 8.37,17.97 17.18,44.72 10.8,64.22 -2.37,7.22 -11.24,7.97 -15.42,2.02 v 0"
         style="fill:#b4935d;fill-opacity:1;fill-rule:nonzero;stroke:none"
         transform="matrix(0.13333333,0,0,-0.13333333,0,1306.6667)" />
      <path
         id="path262"
         d="m 4398.87,1745.88 c 7.9,9.56 15.76,19.13 23.58,28.75 8.97,11.03 17.83,19.86 19.68,34.42 1.42,11.18 -12.95,21.67 -23.19,17.66 -12.92,-5.05 -19.07,-15.28 -27.17,-25.94 -6.88,-9.04 -13.79,-18.06 -20.74,-27.04 -6.5,-8.4 -8.19,-19.66 0,-27.85 6.97,-6.97 21.03,-8.23 27.84,0 v 0"
         style="fill:#b4935d;fill-opacity:1;fill-rule:nonzero;stroke:none"
         transform="matrix(0.13333333,0,0,-0.13333333,0,1306.6667)" />
      <path
         id="path263"
         d="m 4323.92,1573.68 c 34.26,29 71.63,55.38 109.69,79.2 28.43,17.81 70.18,28.62 89.41,56.54 5.09,7.38 -1.91,15.48 -9.31,16.22 -36.7,3.69 -77.81,-32.73 -105.92,-53.43 -35.24,-25.95 -64.12,-56.93 -91.16,-91.24 -4.07,-5.17 2.14,-11.66 7.29,-7.29 v 0"
         style="fill:#b4935d;fill-opacity:1;fill-rule:nonzero;stroke:none"
         transform="matrix(0.13333333,0,0,-0.13333333,0,1306.6667)" />
      <path
         id="path264"
         d="m 4537.49,1504.92 c 75.95,19.98 150.94,38.33 227.53,55.26 28.16,6.23 22.3,52.18 -6.85,50.64 -79.88,-4.2 -158.1,-35.64 -232.9,-61.6 -27.65,-9.6 -16.7,-51.9 12.22,-44.3 v 0"
         style="fill:#b4935d;fill-opacity:1;fill-rule:nonzero;stroke:none"
         transform="matrix(0.13333333,0,0,-0.13333333,0,1306.6667)" />
      <path
         id="path265"
         d="m 3334.22,1934.4 c 82.07,163.82 168.29,310.86 349.71,376.59 77.3,28.01 159.02,41.27 240.1,52.89 20.25,2.9 50.26,13.25 70.58,9.17 30.22,-6.07 33.12,-32.34 46.71,-53.47 19.54,-30.39 46.93,-52.45 79.16,-68.15 0,13.83 0,27.66 0,41.49 -32.29,-22.99 -74.99,-6.98 -111.92,-14.64 -29.78,-6.19 -56.1,-21.64 -79.13,-41.11 -24.91,-21.06 -44.85,-46.78 -64.9,-72.29 -10.8,-13.73 -21.15,-30.92 -34.22,-42.57 -23.75,-21.17 -49.38,-15.56 -78.39,-12.91 -81.55,7.46 -147.95,8.08 -220.2,-34.44 -33.28,-19.59 -63.17,-44.64 -91.35,-70.89 -15.29,-14.25 -29.45,-29.64 -44.6,-44 -8.31,-8.88 -17.4,-16.88 -27.27,-24 -22.48,-8.32 -33.19,-5.25 -32.13,9.22 16.19,11.61 7.08,43.7 -14.8,35.12 -60.38,-23.67 -23.81,-106.37 34.4,-100.35 45.64,4.71 77.57,48.58 108.34,77.78 43.06,40.87 91.06,81.62 148.35,100.43 63.94,21 124.98,-3.21 189.41,3.15 41.01,4.05 60.66,29.43 84.35,60.11 31.98,41.42 68.85,93.51 121.77,108.93 46.74,13.62 93.57,-9.1 136.54,20.97 13.63,9.54 17.43,32.83 0,41.49 -31.01,15.41 -52,34.87 -68.96,64.84 -8.44,14.93 -13.56,30.92 -25.76,43.54 -25.9,26.82 -57.92,21.39 -91.87,17.16 -99.77,-12.43 -200.3,-27.48 -294.5,-64.17 -181.58,-70.73 -296.69,-227.11 -354.27,-409.42 -4.58,-14.5 17.89,-24.36 24.85,-10.47 v 0"
         style="fill:#b4935d;fill-opacity:1;fill-rule:nonzero;stroke:none"
         transform="matrix(0.13333333,0,0,-0.13333333,0,1306.6667)" />
      <path
         id="path266"
         d="m 3617.58,2334.97 c -51.06,5.29 -102.51,1.3 -153.69,6.17 -40.13,3.81 -80.57,12.77 -121.01,11.5 -76.24,-2.4 -126.16,-51.48 -180.67,-99.17 -40.28,-35.24 -133.55,-86.08 -112.79,-152.73 20.51,-65.84 97.81,-59.92 150.44,-45.86 -9.59,3.91 -19.18,7.81 -28.77,11.71 34.9,-60.4 153.09,-138.35 215.82,-71.38 7.54,8.05 4.64,22.19 -6.61,25.08 -27.46,7.05 -55.29,0.59 -82.9,7.81 -36.25,9.47 -63.79,32.03 -82.31,64.21 -5.66,9.83 -17.92,14.59 -28.77,11.71 -13.26,-3.52 -27.54,-8.18 -41.26,-8.92 -26.83,-1.44 -44.54,21.87 -33.98,45.43 7.8,17.41 42.9,37.59 57.48,50.3 40.15,35 85.12,88.27 136.68,105.44 50.52,16.83 106.75,0.55 158.65,0 52.47,-0.55 106.92,2.25 155.93,22.12 8.88,3.6 7.51,15.56 -2.24,16.58 v 0"
         style="fill:#b4935d;fill-opacity:1;fill-rule:nonzero;stroke:none"
         transform="matrix(0.13333333,0,0,-0.13333333,0,1306.6667)" />
      <path
         id="path267"
         d="m 3292.95,2319.61 c 48.23,55.22 80.03,137.04 140.63,178.78 59.12,40.71 132.14,77.27 201.25,96.27 40.44,11.12 81.92,14.54 123.74,12.88 21.08,-0.83 58.15,3.73 56.82,-32.29 -0.42,-11.5 -11.88,-26.64 -16.35,-37.83 -19.48,-48.67 -27.26,-95.83 7.18,-139.01 16.93,-21.22 46.6,8.81 29.83,29.83 -50.8,63.69 69.02,145.11 7.47,202.43 -17.18,16 -43.85,16.29 -65.67,17.95 -45.93,3.48 -92.71,1.64 -137.67,-9 -76.89,-18.2 -153.73,-60.42 -219.36,-103.69 -68.57,-45.21 -110.04,-132.58 -141.12,-206.1 -3.37,-7.97 6.32,-18.16 13.25,-10.22 v 0"
         style="fill:#b4935d;fill-opacity:1;fill-rule:nonzero;stroke:none"
         transform="matrix(0.13333333,0,0,-0.13333333,0,1306.6667)" />
      <path
         id="path268"
         d="m 3808.23,2431.81 c 13.34,81.41 69.78,153.32 145.3,187.01 41.42,18.48 88.38,26.34 130.96,7.61 32,-14.08 118.31,-27.49 121.79,-69.32 7.47,7.47 14.94,14.94 22.41,22.41 -76.67,-2.9 -182.97,-37.77 -211.97,-116.86 -4.68,-12.75 11.79,-24.38 22.72,-17.47 27.58,17.42 48.67,42.49 77.22,58.89 34.87,20.02 72.02,29.27 112.03,30.62 11.38,0.39 23.39,9.98 22.41,22.41 -4.87,61.27 -54.28,75.15 -105.31,90.35 -61.46,18.29 -100.73,39.73 -166.18,21.42 -107.09,-29.97 -181.92,-124.29 -185.19,-235.2 -0.23,-7.74 12.51,-9.82 13.81,-1.87 v 0"
         style="fill:#b4935d;fill-opacity:1;fill-rule:nonzero;stroke:none"
         transform="matrix(0.13333333,0,0,-0.13333333,0,1306.6667)" />
      <path
         id="path269"
         d="m 3963.45,2382.94 c 65.32,70.29 176.56,98.21 268.44,73.97 8.63,-2.28 17.27,-5.01 25.59,-8.27 7.92,-4.27 16.13,-7.83 24.63,-10.67 7.97,-1.12 7.36,-3.69 -1.84,-7.72 -8.06,-18.63 -48.38,-38.96 -64.9,-52.26 -23.82,-19.19 -47.51,-41.52 -74.38,-56.35 -20.83,-11.51 -43.99,-11.69 -64.56,-23.01 -7.72,-4.25 -7.52,-13.81 -2.56,-19.88 45.67,-55.84 131.44,30.44 167.46,60.26 33.82,27.99 140.31,87.26 69.93,133.15 -118.7,77.39 -278.91,27.3 -359.74,-77.29 -6.43,-8.32 4.32,-20.12 11.93,-11.93 v 0"
         style="fill:#b4935d;fill-opacity:1;fill-rule:nonzero;stroke:none"
         transform="matrix(0.13333333,0,0,-0.13333333,0,1306.6667)" />
      <path
         id="path270"
         d="m 3536.44,2463.17 c 31.54,-45.04 63.31,-89.33 99.29,-131 5.57,-6.46 17.33,-9.69 25.38,-6.71 6.99,2.59 12.41,4.93 15.59,11.99 4.84,10.73 4.72,22.82 -4.08,31.62 -38.04,38.02 -79.08,72.07 -120.71,106.03 -7.94,6.47 -22.41,-2.01 -15.47,-11.93 v 0"
         style="fill:#b4935d;fill-opacity:1;fill-rule:nonzero;stroke:none"
         transform="matrix(0.13333333,0,0,-0.13333333,0,1306.6667)" />
      <path
         id="path271"
         d="m 3676.65,2460.35 c -12.41,-20.32 -16.29,-39.42 -12.6,-63.17 3,-19.29 12.26,-48.51 34.46,-52.15 9.12,-1.5 19.4,3.86 18.99,14.46 -0.63,16.05 -12.96,26.88 -18.9,41.31 -6.42,15.62 -8.33,36.06 -5.67,52.69 1.53,9.53 -10.68,16.02 -16.28,6.86 v 0"
         style="fill:#b4935d;fill-opacity:1;fill-rule:nonzero;stroke:none"
         transform="matrix(0.13333333,0,0,-0.13333333,0,1306.6667)" />
      <path
         id="path272"
         d="m 3694.94,2156.08 c 0.99,34.37 6.21,69.27 19.37,101.2 10.55,25.6 32.86,46.94 34.22,75.07 0.46,9.42 -10.35,18.38 -19.58,14.92 -32.19,-12.06 -43.69,-51.95 -51.24,-83 -9.06,-37.28 -9.15,-73.36 0.65,-110.43 2.47,-9.35 16.3,-7.19 16.58,2.24 v 0"
         style="fill:#b4935d;fill-opacity:1;fill-rule:nonzero;stroke:none"
         transform="matrix(0.13333333,0,0,-0.13333333,0,1306.6667)" />
      <path
         id="path273"
         d="m 3989.91,2550.45 c -76.81,4.57 -181.1,-58.16 -184.15,-143.12 -0.89,-24.93 33.16,-32.13 45.43,-12.3 17.86,28.89 26.29,59.46 50.99,84.71 24.36,24.9 57.13,42.22 90.22,52.3 10.32,3.14 8.01,17.79 -2.49,18.41 v 0"
         style="fill:#b4935d;fill-opacity:1;fill-rule:nonzero;stroke:none"
         transform="matrix(0.13333333,0,0,-0.13333333,0,1306.6667)" />
      <path
         id="path274"
         d="m 3293.76,2143.41 c 38.79,56.82 81.71,84.32 148.84,100.43 44.37,10.66 106.47,10.59 134.63,50.65 4.79,6.83 0.09,18.43 -8.13,19.97 -30.97,5.8 -59.33,-7.93 -89.39,-15.87 -35.52,-9.39 -71.44,-17.98 -104.97,-33.35 -46.75,-21.43 -98.54,-60.6 -101.07,-116.38 -0.51,-11.41 14.46,-13.7 20.09,-5.45 v 0"
         style="fill:#b4935d;fill-opacity:1;fill-rule:nonzero;stroke:none"
         transform="matrix(0.13333333,0,0,-0.13333333,0,1306.6667)" />
      <path
         id="path275"
         d="m 3883.45,2957.94 c 7.47,12.44 14.91,24.83 22.04,37.47 9.54,16.91 -2.77,35.52 -21.09,36.75 -117.34,7.9 -144.59,-164.56 -155.92,-247.01 -9.72,-70.78 -12.25,-142.03 -6.02,-213.24 5.57,-63.61 10.82,-138.22 42.79,-194.45 4.94,-8.7 18.06,-4.58 18.34,4.97 1.61,53.95 -13.54,108.07 -16.46,162.11 -2.97,54.69 -1.68,109.94 3.76,164.46 5.53,55.43 16.53,109.91 31.08,163.63 13.66,50.4 32.33,100.65 88.92,111.55 -10.02,10.02 -20.03,20.03 -30.05,30.05 -3.01,-14.39 -5.61,-28.81 -8.23,-43.28 -3.29,-18.15 20.48,-30.26 30.84,-13.01 v 0"
         style="fill:#b4935d;fill-opacity:1;fill-rule:nonzero;stroke:none"
         transform="matrix(0.13333333,0,0,-0.13333333,0,1306.6667)" />
      <path
         id="path276"
         d="m 3236.44,2817.68 c 7.51,21.4 123.8,-78.16 134.79,-88.74 43.5,-41.84 82.49,-88.2 121.92,-133.85 76.85,-88.97 150.69,-180.42 224.2,-272.16 4.94,-6.16 15.8,2.1 11.04,8.52 -99.14,133.77 -209.16,257.48 -315.31,385.46 -39.13,47.19 -78.15,116.85 -138.85,139.17 -29.59,10.88 -77.85,2.51 -66.72,-38.4 4.09,-14.99 24.2,-13.49 28.93,0 v 0"
         style="fill:#b4935d;fill-opacity:1;fill-rule:nonzero;stroke:none"
         transform="matrix(0.13333333,0,0,-0.13333333,0,1306.6667)" />
      <path
         id="path277"
         d="m 4119.64,2290.48 c -27.13,-69.43 -26.17,-155.81 -16.28,-228.66 9.1,-67.04 25.08,-166.72 75.3,-215.64 10.87,-10.6 25.47,0.51 23.5,13.68 -5.01,33.56 -24.31,63.45 -35.22,95.61 -12.57,37.03 -21.61,75.11 -27.13,113.81 -10.63,74.47 -1.94,144.24 0.09,218.46 0.34,12.4 -16.26,12.96 -20.26,2.74 v 0"
         style="fill:#b4935d;fill-opacity:1;fill-rule:nonzero;stroke:none"
         transform="matrix(0.13333333,0,0,-0.13333333,0,1306.6667)" />
      <path
         id="path278"
         d="m 3655.34,2067.88 c 35.3,-21.94 70.53,-46.37 101.7,-73.88 20.6,-18.17 42.45,-56.48 71.91,-56.36 5.22,0.02 8.35,4.09 8.9,8.9 3.68,32.24 -42.91,59.11 -65.74,76.18 -34.56,25.84 -70.38,44.64 -110.99,58.87 -8.24,2.89 -12.78,-9.35 -5.78,-13.71 v 0"
         style="fill:#b4935d;fill-opacity:1;fill-rule:nonzero;stroke:none"
         transform="matrix(0.13333333,0,0,-0.13333333,0,1306.6667)" />
      <path
         id="path279"
         d="m 4027.68,1945.37 c -53.22,81 -66.37,166.64 -56.49,261.45 2.6,24.96 -40.53,31.09 -44.2,5.98 -14.74,-100.96 21.45,-201.52 89.65,-275.95 5.34,-5.83 15.45,1.81 11.04,8.52 v 0"
         style="fill:#b4935d;fill-opacity:1;fill-rule:nonzero;stroke:none"
         transform="matrix(0.13333333,0,0,-0.13333333,0,1306.6667)" />
      <path
         id="path280"
         d="m 3893.01,2013.18 c -4.24,20.08 -12.17,37.14 -22.8,54.67 -9.4,15.53 -19.55,35.22 -39.97,35.38 -7.12,0.06 -12.29,-5.86 -12.66,-12.66 -1.02,-18.52 15.91,-29.87 26.77,-42.67 11.83,-13.94 22.4,-29.06 33.78,-43.39 5.99,-7.54 16.54,0.85 14.88,8.67 v 0"
         style="fill:#b4935d;fill-opacity:1;fill-rule:nonzero;stroke:none"
         transform="matrix(0.13333333,0,0,-0.13333333,0,1306.6667)" />
      <path
         id="path381"
         d="m 4309.74,1827.2 c -14.69,252.06 -21.41,498.56 45.7,744.7 65.38,239.74 178.67,469.63 347.45,653.81 163.34,178.24 378.57,317.22 621.2,351.95 221.61,31.72 495.03,-38.18 598.48,-257.7 54.9,-116.48 24.96,-249.12 -76.09,-329.04 -48.86,-38.63 -107.65,-59.78 -170.11,-59.36 -37.51,0.26 -154.01,22.65 -139.69,78.52 -7.74,-10.07 -15.49,-20.14 -23.23,-30.21 20.56,9.81 39.83,11.36 62.23,9.96 64.11,-3.99 60.24,89.46 0,97.5 -67.49,9.01 -148.76,-14.38 -141.5,-95.65 5.91,-66.25 66.83,-113.68 127.56,-129.63 116.75,-30.67 248.15,17.93 334.51,97.52 88.26,81.33 127.05,202.02 98.1,318.96 -30.7,123.99 -129.03,222.37 -237.94,282.91 -252.05,140.11 -561.83,78.35 -801.63,-57 -265.69,-149.96 -470.67,-394.1 -592.37,-672.21 -133.13,-304.21 -196.55,-689.79 -74.77,-1008.02 4.2,-10.98 22.9,-10.65 22.1,2.99 v 0"
         style="fill:#b4935d;fill-opacity:1;fill-rule:nonzero;stroke:none"
         transform="matrix(0.13333333,0,0,-0.13333333,0,1306.6667)" />
      <path
         id="path382"
         d="m 3570.74,1932.87 c -148.92,38.58 -292.23,-50.22 -421.76,-114.18 -136.63,-67.46 -282.64,-133.8 -438.04,-131.47 -141.03,2.12 -286.73,53.74 -378.99,164.11 -83.04,99.33 -119.86,243.96 -83.22,369.44 18.69,64.01 69.31,152.82 147.41,142.44 56.95,-7.57 114.5,-47.3 141.16,-97.47 39.15,-73.67 146.29,-8.91 110.9,64.83 -66.14,137.79 -234.21,161.12 -354.78,81.59 -130.48,-86.07 -165.13,-272.65 -132.47,-415.57 80.07,-350.39 478.57,-477.78 789.64,-360.97 101.67,38.17 192.97,99.92 285.89,155.05 98.67,58.54 211.26,128.68 330.9,117.34 14.37,-1.36 16.93,21.34 3.36,24.86 v 0"
         style="fill:#b4935d;fill-opacity:1;fill-rule:nonzero;stroke:none"
         transform="matrix(0.13333333,0,0,-0.13333333,0,1306.6667)" />
      <path
         id="path383"
         d="m 4566.96,1403.53 c 62.14,-29.54 128.88,-47.35 190.32,-79.43 62.9,-32.84 122.71,-72.33 172.63,-123.12 117.12,-119.15 135.06,-277.898 121.17,-437.98 -13.2,-152.098 -68.93,-321.098 -222.8,-383.051 -56.96,-22.937 -170.93,-33.41 -199.77,38.903 -27.46,68.828 54.86,97.929 95.7,130.5 23.28,18.57 13.91,58.089 -9.2,71.418 -68.23,39.359 -143.48,-4.5 -181.95,-65.598 -39.59,-62.871 -27.83,-148.961 15.19,-206.961 94.85,-127.852 293.91,-83.219 401.08,1.309 127.77,100.793 175.75,264.75 177.46,422.031 1.72,158.16 -27.5,318.539 -137.78,438.189 -53.67,58.22 -120.83,104.07 -191.54,139.09 -68.71,34.03 -147.74,68.61 -224.35,77.41 -11.94,1.37 -16.74,-17.68 -6.16,-22.71 v 0"
         style="fill:#b4935d;fill-opacity:1;fill-rule:nonzero;stroke:none"
         transform="matrix(0.13333333,0,0,-0.13333333,0,1306.6667)" />
      <path
         id="path384"
         d="m 5351.27,3341.79 c -124.87,88.17 -332.56,39.75 -463.43,-10.22 -135.15,-51.61 -295.92,-148.14 -360.56,-283.84 -4.84,-10.14 7.48,-21.23 16.19,-12.5 52.77,52.92 98.12,109.18 159.31,153.42 62.11,44.9 130.6,78.94 203.89,101.34 70.41,21.53 143.04,31.39 216.66,29 72.35,-2.35 144.64,-21.41 216.82,-18.25 22.73,0.99 28.8,28.56 11.12,41.05 v 0"
         style="fill:#b4935d;fill-opacity:1;fill-rule:nonzero;stroke:none"
         transform="matrix(0.13333333,0,0,-0.13333333,0,1306.6667)" />
      <path
         id="path385"
         d="m 4829.54,656.77 c 45.77,22.71 74.36,87.199 97.02,130.66 28.64,54.941 49.2,113.25 58.55,174.66 14.07,92.38 -8.63,216.3 -78.27,284.43 -6.36,6.23 -15.3,-1.6 -11.78,-9.09 24.61,-52.42 43.58,-92.04 41.3,-151.44 -1.89,-49.25 -7.48,-98.74 -21.27,-146.177 -14.17,-48.762 -35.08,-96.223 -57.51,-141.711 -19.33,-39.211 -52.25,-82.672 -52.02,-127.571 0.07,-12.691 13.33,-19.051 23.98,-13.761 v 0"
         style="fill:#b4935d;fill-opacity:1;fill-rule:nonzero;stroke:none"
         transform="matrix(0.13333333,0,0,-0.13333333,0,1306.6667)" />
      <path
         id="path386"
         d="m 2713.36,1994.8 c 9.68,-25.14 7.95,-41.73 28.29,-63.55 17.83,-19.13 41.18,-35.41 62.81,-49.96 45.99,-30.94 100.23,-47.47 153.22,-61.94 99.42,-27.14 231.56,-53.51 332.89,-23.82 15,4.4 17.11,29.37 0,32.55 -47.33,8.79 -96.68,4.67 -144.65,9.06 -53.91,4.93 -108.04,14.52 -159.71,30.93 -48.17,15.29 -90.97,41.05 -133.03,68.49 -22.75,14.85 -42.65,32.19 -64.13,48.58 -17.54,13.39 -35.98,16.15 -53.66,26.6 -10.46,6.17 -26.9,-4.3 -22.03,-16.94 v 0"
         style="fill:#b4935d;fill-opacity:1;fill-rule:nonzero;stroke:none"
         transform="matrix(0.13333333,0,0,-0.13333333,0,1306.6667)" />
      <path
         id="path387"
         d="m 4310.18,3323.54 c 73.77,12.63 93.07,-161.04 99.78,-205.28 14.82,-97.66 8.68,-192.93 9.24,-291.05 0.05,-8.51 12.31,-10.11 14.73,-1.99 36.64,122.61 30.78,264.23 12.94,389.55 -11.54,81.03 -52.9,185.42 -152.89,167.53 -38.63,-6.92 -22.14,-65.33 16.2,-58.76 v 0"
         style="fill:#b4935d;fill-opacity:1;fill-rule:nonzero;stroke:none"
         transform="matrix(0.13333333,0,0,-0.13333333,0,1306.6667)" />
      <path
         id="path388"
         d="m 2490.37,1369.65 c -12.75,65.47 87.8,120.81 133.54,149.17 58.99,36.58 123.07,62.97 183.78,96.2 8.51,4.66 2.22,15.86 -6.14,14.57 -98.42,-15.14 -196.09,-63.51 -282.22,-111.86 -61.1,-34.3 -128.55,-98.14 -88.07,-173 18.27,-33.8 65.83,-9.57 59.11,24.92 v 0"
         style="fill:#b4935d;fill-opacity:1;fill-rule:nonzero;stroke:none"
         transform="matrix(0.13333333,0,0,-0.13333333,0,1306.6667)" />
      <path
         id="path389"
         d="m 5332.53,815.461 c -43.85,41.238 -106.61,65.488 -154.78,102.648 -58.73,45.301 -97.94,109.731 -141.52,168.541 -6.02,8.13 -22.27,3.78 -17.99,-7.59 28.9,-76.77 69.81,-151.259 121.2,-215.38 41.08,-51.25 124.49,-105.348 190.62,-67.36 6.65,3.809 8.18,13.762 2.47,19.141 v 0"
         style="fill:#b4935d;fill-opacity:1;fill-rule:nonzero;stroke:none"
         transform="matrix(0.13333333,0,0,-0.13333333,0,1306.6667)" />
    </g>
  </g>
</svg>
